<?xml version="1.0" encoding="utf-8"?>
<!-- Generator: Adobe Illustrator 22.1.0, SVG Export Plug-In . SVG Version: 6.00 Build 0)  -->
<svg version="1.1" id="Layer_1" xmlns="http://www.w3.org/2000/svg" xmlns:xlink="http://www.w3.org/1999/xlink" x="0px" y="0px"
	 viewBox="0 0 450 108" style="enable-background:new 0 0 450 108;" xml:space="preserve">
<style type="text/css">
	.st0{display:none;}
	.st1{fill:url(#SVGID_1_);}
	.st2{fill:url(#SVGID_2_);}
	.st3{fill:url(#SVGID_3_);}
	.st4{fill:#042284;}
</style>
<g>
	<g>
		
			<radialGradient id="SVGID_1_" cx="36.64" cy="57.3777" r="60.8461" gradientTransform="matrix(0.9991 0 0 1.0004 0.3145 -1.948786e-02)" gradientUnits="userSpaceOnUse">
			<stop  offset="0" style="stop-color:#74BE1D"/>
			<stop  offset="0.3337" style="stop-color:#5CB427"/>
			<stop  offset="1" style="stop-color:#239B3E"/>
		</radialGradient>
		<path class="st1" d="M60.1,11.2c-20.2,0.9-35.5,7.6-45.5,20.1C-0.7,50.3-0.5,79.2,2.1,99.5c0,0.3,0.1,0.7,0.1,1
			c0.3-0.1,0.6-0.3,0.9-0.4c32.5-14.9,46.7-41,52.8-61.4c2.9-9.6,4.3-18.9,5-26.6c0-0.3,0.1-0.7,0.1-1
			C60.7,11.2,60.4,11.2,60.1,11.2z"/>
		
			<radialGradient id="SVGID_2_" cx="44.5091" cy="57.1347" r="70.4766" gradientTransform="matrix(0.9991 0 0 1.0004 0.3145 -1.948786e-02)" gradientUnits="userSpaceOnUse">
			<stop  offset="0" style="stop-color:#74BE1D"/>
			<stop  offset="0.218" style="stop-color:#70BC1F"/>
			<stop  offset="0.4427" style="stop-color:#63B724"/>
			<stop  offset="0.6705" style="stop-color:#4FAE2C"/>
			<stop  offset="0.899" style="stop-color:#32A238"/>
			<stop  offset="1" style="stop-color:#239B3E"/>
		</radialGradient>
		<path class="st2" d="M70.3,10.4C70.2,36,61.6,68.9,28.6,94.5c39.5-11.7,87.2-42.4,86.3-93.8C97.6,7.5,82.7,10.2,70.3,10.4z"/>
		
			<radialGradient id="SVGID_3_" cx="39.1742" cy="59.5378" r="63.3131" gradientTransform="matrix(0.9991 0 0 1.0004 0.3145 -1.948786e-02)" gradientUnits="userSpaceOnUse">
			<stop  offset="0" style="stop-color:#74BE1D"/>
			<stop  offset="0.218" style="stop-color:#70BC1F"/>
			<stop  offset="0.4427" style="stop-color:#63B724"/>
			<stop  offset="0.6705" style="stop-color:#4FAE2C"/>
			<stop  offset="0.899" style="stop-color:#32A238"/>
			<stop  offset="1" style="stop-color:#239B3E"/>
		</radialGradient>
		<path class="st3" d="M121,29.8c-21.6,62.4-96.2,76.8-96.2,76.8S121,119.5,121,29.8"/>
	</g>
	<g>
		<path class="st4" d="M173.1,53.4c-4.2-0.8-8.4-1.4-12.6-2.3c-2.4-0.5-4.3-1.9-4.5-4.7c-0.2-2.9,1.3-4.7,3.8-6c1.8-1,3.7-1,5.7-1.2
			c5.1-0.5,11,1.6,15.9,3.4l3.6-5.7c-6.3-4.2-14.8-5.1-22-4.7c-9.2,0.6-15.3,6-15.6,13.6c-0.3,7.2,4.6,12,14,13.6
			c4,0.7,8.1,1.3,12,2.2c2.4,0.6,4.2,2.3,4.4,4.9c0.2,2.8-1.5,4.9-4,5.8c-2,0.7-4.1,1.2-6.2,1.4c-6.3,0.7-13.4-1.5-18.6-4.3
			l-3.7,5.9c8.2,5.4,18.5,6.6,27.9,4.8c8.2-1.6,13.2-7.3,13.1-14.2C186.2,59.4,181.7,55.1,173.1,53.4z"/>
		<polygon class="st4" points="245.1,39.3 275.3,39.3 245.1,72.9 245.1,79.5 284.5,79.5 284.5,72.9 253.9,72.9 284.9,39.3 
			284.9,39.3 284.9,39.3 284.9,32.8 245.1,32.8 		"/>
		<path class="st4" d="M329.9,39.1c-4.4-4.3-10.4-7-17.1-7c-13.4,0-24.3,10.9-24.3,24.3s10.9,24.3,24.3,24.3c6.6,0,12.7-2.7,17.1-7
			v5.7h7.2V32.8h-7.2V39.1z M312.9,73.5c-9.4,0-17.1-7.6-17.1-17.1c0-9.4,7.6-17.1,17.1-17.1s17.1,7.6,17.1,17.1
			C329.9,65.8,322.3,73.5,312.9,73.5z"/>
		<path class="st4" d="M235.5,62.1V32.8h-7.2v16.7v11.7v0v1h-0.1c-0.5,6.7-6.6,12.1-13.9,12.1c-7.4,0-13.4-5.3-13.9-12.1h-0.1v-1v0
			V49.5V32.8h-7.2v29.3h0c0,0.3,0,0.5,0,0.8c0,9.9,9.5,17.9,21.2,17.9c11.7,0,21.2-8,21.2-17.9C235.5,62.6,235.5,62.4,235.5,62.1
			L235.5,62.1z"/>
		<path class="st4" d="M424.9,32.1c-13.4,0-24.3,10.9-24.3,24.3s10.9,24.3,24.3,24.3c13.4,0,24.3-10.9,24.3-24.3
			S438.3,32.1,424.9,32.1z M424.9,73.5c-9.4,0-17.1-7.6-17.1-17.1c0-9.4,7.6-17.1,17.1-17.1c9.4,0,17.1,7.6,17.1,17.1
			C442,65.8,434.3,73.5,424.9,73.5z"/>
		<path class="st4" d="M370.7,32.8c-9.4,0-13,5.1-14,6.1v-6.1h-7.2v46.7h0v1.3h7.2V64.1V52.4v0v-1h0.1c0.5-6.7,6.6-12.1,13.9-12.1
			s13.4,5.3,13.9,12.1h0.1v1v0v11.7v16.7h7.2V51.4h0c0-0.3,0-0.5,0-0.8C391.9,40.8,382.4,32.8,370.7,32.8z"/>
	</g>
</g>
</svg>
